<mxfile host="65bd71144e">
    <diagram id="0SuDd06kYUjMffqJ5sqQ" name="Page-1">
        <mxGraphModel dx="556" dy="353" grid="1" gridSize="10" guides="1" tooltips="1" connect="1" arrows="1" fold="1" page="1" pageScale="1" pageWidth="827" pageHeight="1169" math="0" shadow="0">
            <root>
                <mxCell id="0"/>
                <mxCell id="1" parent="0"/>
                <mxCell id="2" value="ROM" style="whiteSpace=wrap;html=1;aspect=fixed;fillColor=none;rotation=90;" vertex="1" parent="1">
                    <mxGeometry x="560" y="40" width="80" height="80" as="geometry"/>
                </mxCell>
                <mxCell id="3" value="RAM" style="whiteSpace=wrap;html=1;aspect=fixed;fillColor=none;" vertex="1" parent="1">
                    <mxGeometry x="280" y="40" width="80" height="80" as="geometry"/>
                </mxCell>
                <mxCell id="4" value="PE#1" style="whiteSpace=wrap;html=1;aspect=fixed;fillColor=none;" vertex="1" parent="1">
                    <mxGeometry x="280" y="340" width="80" height="80" as="geometry"/>
                </mxCell>
                <mxCell id="5" value="PE#2" style="whiteSpace=wrap;html=1;aspect=fixed;fillColor=none;" vertex="1" parent="1">
                    <mxGeometry x="390" y="340" width="80" height="80" as="geometry"/>
                </mxCell>
                <mxCell id="6" value="PE#3" style="whiteSpace=wrap;html=1;aspect=fixed;fillColor=none;" vertex="1" parent="1">
                    <mxGeometry x="500" y="340" width="80" height="80" as="geometry"/>
                </mxCell>
                <mxCell id="7" value="PE#4" style="whiteSpace=wrap;html=1;aspect=fixed;fillColor=none;" vertex="1" parent="1">
                    <mxGeometry x="610" y="340" width="80" height="80" as="geometry"/>
                </mxCell>
                <mxCell id="8" value="" style="rounded=1;whiteSpace=wrap;html=1;fillColor=none;" vertex="1" parent="1">
                    <mxGeometry x="270" y="190" width="450" height="60" as="geometry"/>
                </mxCell>
                <mxCell id="9" value="Column major" style="rounded=0;whiteSpace=wrap;html=1;fillColor=none;rotation=90;" vertex="1" parent="1">
                    <mxGeometry x="650" y="65" width="80" height="30" as="geometry"/>
                </mxCell>
                <mxCell id="10" value="Row major" style="rounded=0;whiteSpace=wrap;html=1;fillColor=none;rotation=90;" vertex="1" parent="1">
                    <mxGeometry x="370" y="65" width="80" height="30" as="geometry"/>
                </mxCell>
            </root>
        </mxGraphModel>
    </diagram>
</mxfile>